<?xml version="1.0" encoding="iso-8859-1"?>
<!-- Generator: Adobe Illustrator 18.1.1, SVG Export Plug-In . SVG Version: 6.00 Build 0)  -->
<svg version="1.1" id="Capa_1" xmlns="http://www.w3.org/2000/svg" xmlns:xlink="http://www.w3.org/1999/xlink" x="0px" y="0px"
	 viewBox="0 0 611.998 611.998" style="enable-background:new 0 0 611.998 611.998;" xml:space="preserve">
<g>
	<g>
		<path d="M143.563,359.013c75.118,0,136.225-61.118,136.225-136.225c0-8.439-0.876-16.673-2.359-24.701h57.18
			c-1.482,8.028-2.359,16.262-2.359,24.701c0,75.107,61.107,136.225,136.214,136.225c75.118,0,136.225-61.118,136.225-136.225
			S543.573,86.573,468.466,86.573c-45.743,0-86.197,22.742-110.909,57.428H254.471c-24.712-34.687-65.164-57.428-110.909-57.428
			c-75.107,0-136.214,61.107-136.214,136.214C7.349,297.906,68.456,359.013,143.563,359.013z M468.477,140.669
			c45.289,0,82.129,36.84,82.129,82.118s-36.84,82.118-82.129,82.129c-45.289,0-82.118-36.84-82.118-82.129
			C386.348,177.51,423.187,140.669,468.477,140.669z M143.563,140.669c45.278,0,82.129,36.84,82.129,82.118
			s-36.84,82.118-82.129,82.129c-45.289,0-82.118-36.84-82.118-82.129C61.445,177.51,98.273,140.669,143.563,140.669z"/>
		<path d="M609.679,449.863c-5.496-12.356-19.442-18.198-33.497-14.476c-3.862,1.028-17.203,2.737-34.557,2.737
			c-48.21,0-135.554-54.983-136.052-55.329c-41.697-29.807-99.072-6.654-99.559-6.254h-0.011l0,0
			c-0.487-0.4-57.861-23.554-99.559,6.254c-0.498,0.357-87.842,55.329-136.052,55.329c-17.354,0-30.684-1.709-34.557-2.737
			c-14.044-3.711-27.99,2.131-33.497,14.476c-1.363,3.062-2.121,6.297-2.294,9.521c-0.076,1.266-0.054,2.543,0.043,3.83
			c0.141,1.634,0.444,3.246,0.876,4.804c1.104,4.014,7.574,12.864,13.102,16.586C50.051,508.839,89.065,521,125.7,523.575
			c8.937,1.223,18.447,1.85,28.26,1.85c48.254,0,107.122-16.067,128.911-34.839c9.013-6.448,16.77-14.109,23.121-22.461
			c6.351,8.342,14.109,16.002,23.121,22.461c21.79,18.761,80.658,34.839,128.911,34.839c9.824,0,19.323-0.628,28.26-1.85
			c36.634-2.575,75.648-14.747,111.633-38.971c5.529-3.722,11.999-12.572,13.102-16.586c0.444-1.558,0.747-3.17,0.887-4.804
			c0.108-1.288,0.119-2.564,0.043-3.83C611.799,456.16,611.042,452.924,609.679,449.863z"/>
	</g>
	<g>
	</g>
	<g>
	</g>
	<g>
	</g>
	<g>
	</g>
	<g>
	</g>
	<g>
	</g>
	<g>
	</g>
	<g>
	</g>
	<g>
	</g>
	<g>
	</g>
	<g>
	</g>
	<g>
	</g>
	<g>
	</g>
	<g>
	</g>
	<g>
	</g>
</g>
<g>
</g>
<g>
</g>
<g>
</g>
<g>
</g>
<g>
</g>
<g>
</g>
<g>
</g>
<g>
</g>
<g>
</g>
<g>
</g>
<g>
</g>
<g>
</g>
<g>
</g>
<g>
</g>
<g>
</g>
</svg>
